<svg width="221" height="56" viewBox="0 0 221 56" fill="none" xmlns="http://www.w3.org/2000/svg">
<path d="M58.7104 9.54129C57.0274 10.8931 55.5296 12.555 54.6186 14.5136C52.9223 18.2292 53.4336 22.8044 55.8301 26.1078C61.51 20.5172 67.1439 14.8677 72.8274 9.27708C72.9506 9.1529 73.0587 8.99966 73.1527 8.84378C70.7881 7.57472 68.1303 6.63943 65.4122 6.805C62.9573 6.93269 60.622 8.02299 58.7104 9.54129ZM65.3058 0.47905C65.3058 0.47905 69.1202 0.609389 69.8594 0.752059C74.233 1.48655 78.2619 3.21269 81.4603 6.22022C82.016 6.77241 82.6515 7.2471 83.1159 7.89264C82.0949 8.99702 80.9835 10.0257 79.9174 11.1019C74.7931 16.1993 69.6661 21.2817 64.5401 26.365C63.0902 27.8357 61.5428 29.2219 60.1558 30.7402C62.9511 32.8732 66.6423 33.8675 70.1181 33.1586C73.2386 32.6205 75.9745 30.72 77.918 28.2937C78.0731 28.077 78.3195 28.3086 78.4887 28.3685C80.2657 29.4421 82.0896 30.4584 83.8656 31.5434C83.418 32.3131 82.7826 32.9569 82.2003 33.6174C80.068 35.8623 77.4439 37.6703 74.5237 38.7289C71.296 39.8993 67.7749 40.1292 64.3921 39.6254C60.4961 39.0917 56.8218 37.2987 53.9335 34.6716C50.6109 31.7248 48.0603 27.7961 47.2246 23.4085C46.9153 21.6886 46.8054 19.9237 46.9268 18.1746C47.1891 14.7347 48.484 11.3916 50.5241 8.60953C53.2697 4.86134 57.1009 2.30471 61.658 1.09113C62.8474 0.721244 64.0837 0.661351 65.3058 0.47905Z" fill="#F28F22"/>
<path d="M33.8945 0.0369967C37.0017 -0.0114408 40.1018 -0.0123134 43.2054 0.0343629C43.2675 1.84152 43.1478 3.65749 43.0778 5.46642C43.0796 7.17582 43.0052 8.8861 42.9307 10.5841C42.9316 12.2935 42.8456 14.0064 42.788 15.714C42.8004 17.7608 42.6267 19.8083 42.6276 21.8524C42.453 27.0564 42.3502 32.2718 42.1641 37.4889C39.7642 37.4898 37.366 37.5515 34.9855 37.466C34.6718 24.9823 34.2118 12.5136 33.8945 0.0369967Z" fill="#F28F22"/>
<path d="M101.817 0.64038C104.271 0.145436 106.82 0.0837869 109.292 0.495947C112.907 1.12916 116.333 2.92136 118.717 5.7096C119.766 4.60699 120.895 3.56162 122.207 2.76372C124.695 1.18201 127.628 0.320701 130.575 0.244962C133.542 0.133996 136.619 0.469539 139.303 1.81875C141.158 2.72761 142.734 4.18249 143.83 5.93417C145.04 7.83556 145.752 10.0153 146.167 12.2099C146.646 14.667 146.786 17.1805 146.788 19.6852C146.668 23.0591 146.437 26.4418 146.268 29.7989C146.19 31.3947 146.145 32.9923 146.023 34.5731C146.023 36.0456 145.776 37.519 145.855 38.9765C143.597 39.0769 141.329 39.0118 139.074 39.0285C139.151 35.9575 139.393 32.9024 139.489 29.8491C139.643 28.2357 139.608 26.6108 139.779 24.9807C139.81 23.3699 139.964 21.775 140.01 20.1449C140.166 18.3685 140.023 16.5869 139.823 14.8194C139.511 12.7788 139.031 10.6124 137.593 9.05091C136.126 7.48417 133.916 6.94696 131.847 6.85802C129.518 6.75233 127.06 7.19444 125.143 8.59648C123.227 9.93424 122.091 12.128 121.734 14.3817C121.409 16.5491 121.455 18.7543 121.428 20.9366C121.015 26.9526 120.799 33.002 120.401 39.0355C118.193 39.0355 115.986 39.0373 113.773 39.0373C113.805 37.5163 113.851 35.9972 113.989 34.4798C114.188 28.8777 114.572 23.2898 114.753 17.7019C114.752 14.9409 114.393 11.9748 112.712 9.68941C111.135 7.62068 108.401 6.86769 105.884 6.85272C103.165 6.76289 100.264 7.59249 98.3619 9.61631C96.6311 11.3874 95.9372 13.9035 95.8911 16.3271C95.7546 18.5526 95.8636 20.808 95.6332 23.037C95.3726 28.3766 95.0784 33.7048 94.7744 39.047C92.5056 39.047 90.2315 39.047 87.9468 39.047C88.2658 26.3643 88.6345 13.6868 88.9518 0.995295C91.256 1.78175 93.539 2.60695 95.8415 3.38899C96.0116 3.35729 96.149 3.20493 96.289 3.11158C97.9241 1.91209 99.8402 1.09922 101.817 0.64038Z" fill="#854694"/>
<path d="M166.045 6.72325C164.715 6.90644 163.405 7.21556 162.213 7.8109C159.682 9.04209 157.599 11.0976 156.253 13.5591C154.805 16.2285 154.436 19.3743 154.79 22.3633C155.007 23.4765 155.209 24.5914 155.689 25.6016C156.65 27.8913 158.332 29.8421 160.355 31.2705C163.573 33.5524 167.955 34.0905 171.647 32.6902C174.088 31.7505 176.095 29.9451 177.608 27.8667C179.844 24.8266 180.508 20.8661 179.889 17.199C179.473 15.0959 178.511 13.1153 177.14 11.493C175.637 9.71141 173.787 8.16052 171.578 7.34853C169.815 6.67569 167.898 6.51894 166.045 6.72325ZM161.995 0.857014C166.987 -0.428784 172.543 -0.0967629 177.056 2.51446C178.141 3.09571 179.094 3.87247 180.038 4.65892C180.745 4.45725 181.365 4.01251 182.044 3.72188C183.668 2.90813 185.305 2.06179 186.939 1.26653C186.773 9.44455 186.515 17.6305 186.322 25.8077C186.209 30.1521 186.026 34.493 185.996 38.8435C183.804 37.7973 181.675 36.6321 179.463 35.6484C178.878 36.4331 177.981 36.877 177.163 37.3992C175.018 38.6894 172.547 39.3182 170.074 39.6899C167.806 39.969 165.47 40.0906 163.186 39.7409C160.946 39.4028 158.783 38.5776 156.897 37.2997C153.112 34.7404 149.958 31.075 148.566 26.698C147.611 23.8613 147.409 20.8195 147.683 17.8568C147.945 15.051 148.779 12.3024 150.213 9.85672C152.792 5.51231 157.07 2.12256 161.995 0.857014Z" fill="#854694"/>
<path d="M1.39229 0.513407C1.58106 0.499316 1.78668 0.489635 1.98076 0.489635C11.4361 0.486112 20.911 0.481708 30.3673 0.478186C30.837 0.478186 31.3226 0.42886 31.8092 0.516928C31.764 2.55043 31.8269 4.57952 31.7658 6.6139C24.6226 18.8651 17.4227 31.1004 10.2503 43.3542C9.74783 44.2411 9.16113 45.076 8.7508 46.0007C9.04326 46.0254 9.35256 46.0412 9.64857 46.0412C17.1896 46.0218 24.7228 46.05 32.2683 46.0165C32.3578 48.3398 32.2993 50.6824 32.3002 53.0189C28.624 53.0787 24.9443 53.0233 21.2682 53.0514C14.6506 53.0391 8.03295 53.0426 1.41357 53.0594C0.957148 53.0594 0.485661 53.0594 0.0301294 53.0321C-0.0283629 51.2223 0.0292462 49.4081 0 47.5912C0.01418 47.2689 -0.0434321 46.9201 0.146225 46.6313C7.7582 33.6068 15.4021 20.6062 22.9999 7.56239C16.0437 7.59762 9.0858 7.56944 2.13053 7.58794C1.87972 7.58794 1.64221 7.57297 1.39584 7.55976C1.37811 5.20481 1.37634 2.86747 1.39229 0.513407Z" fill="#F28F22"/>
<path d="M188.933 0.923697C191.314 0.86293 193.705 0.90961 196.087 0.891996C196.314 0.90961 196.595 0.843551 196.78 1.00296C198.621 3.93123 200.459 6.87624 202.298 9.80891C203.058 11.0058 203.753 12.2484 204.586 13.3977C206.256 11.078 207.767 8.65521 209.373 6.30026C210.561 4.52833 211.765 2.72733 212.949 0.945709C213.912 0.810083 214.898 0.928102 215.858 0.884068C217.571 0.900801 219.287 0.851481 221 0.910487C220.582 1.78589 219.917 2.53799 219.392 3.38785C215.831 8.57508 212.278 13.7966 208.711 18.9865C208.543 19.153 208.574 19.3828 208.711 19.5554C212.439 26.0311 216.162 32.5015 219.872 38.978C217.46 39.03 215.037 38.9807 212.628 38.9974C212.396 38.9824 212.148 39.0317 211.916 38.9393C209.723 34.9339 207.484 30.9761 205.255 26.9796C204.87 26.3675 204.621 25.6647 204.141 25.1117C200.791 29.6991 197.505 34.3544 194.216 38.9727C191.588 39.0397 188.949 38.9912 186.327 38.993C186.431 38.6249 186.726 38.3492 186.925 38.0242C190.801 32.6054 194.661 27.1857 198.519 21.7686C199.093 20.9055 199.786 20.1076 200.296 19.2155C198.948 16.9187 197.482 14.7046 196.093 12.4466C193.725 8.70982 191.359 4.95987 189.012 1.20111C188.997 1.12449 188.951 0.988867 188.933 0.923697Z" fill="#854694"/>
<path d="M190.176 42.7907C190.659 42.6357 191.236 42.9642 191.236 43.5067C191.334 44.1241 190.6 44.5908 190.07 44.3284C189.396 44.0633 189.474 42.9642 190.176 42.7907Z" fill="#854694"/>
<path d="M37.3545 40.2227C38.5606 39.9708 39.8404 40.0844 40.9872 40.5547C42.3431 41.1369 43.357 42.3637 43.7975 43.7516C44.3 45.5482 44.1387 47.6266 43.0078 49.1608C41.4489 51.3704 38.1538 51.9992 35.831 50.6588C34.4316 49.8803 33.4904 48.421 33.1962 46.8754C33.0198 45.5702 33.1058 44.199 33.7226 43.011C34.4157 41.5939 35.808 40.5415 37.3545 40.2227Z" fill="#F28F22"/>
<path d="M55.5242 46.9272C54.7744 47.1412 54.2409 47.8263 54.0707 48.5714C53.8208 49.6124 53.913 50.8717 54.7266 51.6494C55.5082 52.398 56.9156 52.287 57.5732 51.4292C58.214 50.6225 58.0101 49.5155 57.9924 48.5688C57.9295 47.3913 56.6329 46.552 55.5242 46.9272ZM58.0066 42.684C58.4586 42.6374 58.8972 42.6374 59.3359 42.6999C59.3368 46.1451 59.2916 49.6088 59.3696 53.0646C58.9805 53.0646 58.5755 53.0646 58.182 53.0303C58.1989 52.6727 58.182 52.3161 58.151 51.9594C57.7611 52.3178 57.4473 52.7679 56.9316 52.9722C55.8211 53.4486 54.4164 53.2179 53.5869 52.3178C52.6598 51.3262 52.4728 49.8642 52.7086 48.5555C52.9736 47.0513 54.3481 45.7127 55.9425 45.8228C56.7401 45.7735 57.4278 46.2288 57.9915 46.7369C58.0553 45.3842 58.0075 44.0376 58.0066 42.684Z" fill="#854694"/>
<path d="M99.6116 42.6842C100.065 42.6367 100.521 42.6367 100.976 42.6525C100.976 46.1145 100.991 49.5835 100.96 53.0472C100.508 53.0499 100.07 53.0499 99.6151 53.0155C99.6461 49.5835 99.6452 46.1295 99.6116 42.6842Z" fill="#854694"/>
<path d="M103.163 42.6508H104.443C104.508 45.3554 104.446 48.0414 104.462 50.724C104.448 51.4911 104.511 52.2678 104.432 53.0296C104.011 53.0472 103.591 53.0473 103.166 53.0481C103.134 49.5826 103.149 46.1145 103.163 42.6508Z" fill="#854694"/>
<path d="M120.254 46.9015C119.393 47.1455 118.907 48.0209 118.785 48.8584C118.642 49.8377 118.769 50.9897 119.569 51.6696C120.426 52.4657 121.976 52.1839 122.509 51.142C122.976 50.4102 122.774 49.5242 122.804 48.7017C122.803 47.4599 121.441 46.4788 120.254 46.9015ZM122.832 42.6443C123.256 42.6267 123.677 42.6267 124.1 42.6434C124.102 46.1054 124.07 49.5762 124.134 53.0381C123.757 53.039 123.382 53.039 123.008 53.0232C122.959 52.6339 122.959 52.2279 122.977 51.8254C122.634 52.1971 122.353 52.6339 121.88 52.855C120.789 53.438 119.305 53.2433 118.427 52.338C117.456 51.3604 117.239 49.8483 117.505 48.5458C117.691 47.4449 118.424 46.3872 119.521 45.9997C120.646 45.5171 122.052 45.8403 122.834 46.8082C122.803 45.4238 122.784 44.0288 122.832 42.6443Z" fill="#854694"/>
<path d="M133.683 42.6701C134.134 42.6226 134.574 42.6226 135.011 42.6701C134.993 46.1171 134.997 49.572 135.016 53.0181C134.578 53.0349 134.139 53.0349 133.7 53.0181C133.699 49.5711 133.715 46.1153 133.683 42.6701Z" fill="#854694"/>
<path d="M209.125 44.6426C209.471 44.3757 209.969 44.3652 210.375 44.1864C210.374 44.7527 210.344 45.3234 210.406 45.8844C211.016 45.9469 211.642 45.8949 212.252 45.9152C212.253 46.241 212.253 46.5836 212.252 46.9095C211.64 46.9095 211.016 46.8778 210.407 46.9262C210.346 48.0755 210.392 49.2239 210.376 50.3758C210.393 50.884 210.346 51.5242 210.782 51.8985C211.174 52.1619 211.677 52.0535 212.115 51.9734C212.146 52.3177 212.175 52.6727 212.145 53.0197C211.393 53.1403 210.517 53.3156 209.844 52.8188C209.254 52.4287 209.128 51.6511 209.107 50.9941C209.107 49.6581 209.096 48.3115 209.126 46.972C208.749 46.8663 208.36 46.9112 207.967 46.913V45.9169C208.359 45.9169 208.748 45.9486 209.125 45.8368C209.106 45.4334 209.077 45.0433 209.125 44.6426Z" fill="#854694"/>
<path d="M62.7915 47.4513C62.5114 47.838 62.2943 48.295 62.3111 48.7688C63.5288 48.805 64.766 48.805 65.9979 48.768C66.075 48.0564 65.732 47.2629 65.0762 46.937C64.3238 46.5345 63.2931 46.7679 62.7915 47.4513ZM61.9788 46.8014C63.0564 45.6186 65.0913 45.4337 66.3107 46.5011C67.1562 47.3236 67.423 48.583 67.2812 49.7332C65.592 49.8415 63.8886 49.6407 62.2163 49.8292C62.2455 50.7293 62.7321 51.6637 63.6095 51.9886C64.5932 52.3594 65.701 52.1744 66.6883 51.8477C66.7663 52.1392 66.8452 52.4527 66.9072 52.7513C65.9855 53.1987 64.9193 53.248 63.9196 53.1811C62.6231 53.0631 61.4647 52.126 61.1377 50.8684C60.7779 49.5069 60.98 47.8714 61.9788 46.8014Z" fill="#854694"/>
<path d="M69.1875 46.5003C70.1571 45.5993 71.7364 45.6161 72.83 46.2484C72.7671 46.5619 72.674 46.8746 72.519 47.1669C71.8303 46.8746 70.9857 46.5804 70.298 46.9838C69.7521 47.2955 69.7671 48.1498 70.282 48.4712C71.0176 48.9539 71.9712 49.0631 72.5987 49.7315C73.5053 50.6324 73.1783 52.3577 72.0058 52.8852C70.8953 53.3705 69.534 53.3071 68.4546 52.732C68.4998 52.4079 68.5654 52.0635 68.748 51.7826C69.566 52.1129 70.5027 52.4193 71.3331 52.031C71.9721 51.7509 72.0209 50.7725 71.4572 50.3832C70.7526 49.8583 69.7822 49.7835 69.1415 49.1247C68.389 48.4483 68.4679 47.1687 69.1875 46.5003Z" fill="#854694"/>
<path d="M76.2731 49.8219C75.6306 50.1187 75.3656 50.9105 75.6138 51.5481C76.087 52.5424 77.6007 52.3407 78.1963 51.5639C78.7422 51.0188 78.5233 50.2112 78.5712 49.5075C77.8187 49.3411 76.9759 49.4829 76.2731 49.8219ZM74.7408 46.4207C75.7565 45.7972 77.1 45.6281 78.2406 45.9857C79.2722 46.2939 79.8199 47.3833 79.8208 48.3926C79.8208 49.9479 79.8075 51.5014 79.8846 53.0558C79.5088 53.0576 79.1517 53.0576 78.775 53.0391C78.7298 52.7713 78.6811 52.5089 78.6199 52.2623C78.2441 52.5098 77.9162 52.8823 77.4634 53.0241C76.5541 53.3464 75.3355 53.2892 74.6814 52.4675C74.1603 51.9074 74.1302 51.0672 74.3358 50.3662C74.6132 49.563 75.4126 49.0443 76.2102 48.8144C76.9139 48.5458 77.6947 48.5784 78.4294 48.5C78.6944 47.8809 78.2122 46.9958 77.5059 46.8567C76.6613 46.6709 75.7697 46.8743 75.0368 47.2917C74.8941 47.0117 74.7834 46.7307 74.7408 46.4207Z" fill="#854694"/>
<path d="M83.0406 47.3175C83.4943 46.4007 84.3859 45.6248 85.4645 45.7939C85.4804 46.1999 85.4804 46.6191 85.4804 47.0242C85.0444 47.0673 84.556 47.0092 84.182 47.2541C83.5112 47.6451 83.2293 48.4527 83.2444 49.1854C83.2444 50.4703 83.2311 51.7455 83.2621 53.0199C82.8243 53.056 82.3715 53.0542 81.9336 53.0384C81.9328 50.6755 81.915 48.3135 81.915 45.9665C82.2589 45.9674 82.6169 45.9674 82.9785 45.9674C83.053 46.3989 83.0406 46.8542 83.0406 47.3175Z" fill="#854694"/>
<path d="M88.7798 46.2296C89.1999 45.8711 89.7786 45.776 90.329 45.791C90.4211 46.1979 90.4034 46.6171 90.3564 47.0213C89.9505 47.0662 89.5145 47.0063 89.1547 47.223C88.5113 47.5823 88.1541 48.3124 88.1541 49.0293C88.1072 50.36 88.1373 51.7004 88.1249 53.0364C87.688 53.054 87.2324 53.0522 86.7937 53.0188C86.8265 50.6717 86.8256 48.3124 86.7795 45.9645C87.1677 45.9645 87.5594 45.9654 87.9494 45.9645C87.9361 46.3661 87.9361 46.7738 87.9981 47.1763C88.295 46.8848 88.4182 46.4629 88.7798 46.2296Z" fill="#854694"/>
<path d="M93.8287 46.9112C92.4559 47.4379 92.1245 49.1948 92.4701 50.4833C92.7191 51.4018 93.5345 52.2887 94.5678 52.1953C95.5347 52.2208 96.2703 51.3842 96.5185 50.5299C96.7843 49.5348 96.6922 48.3837 96.0665 47.5312C95.5648 46.8654 94.6104 46.6144 93.8287 46.9112ZM93.8447 45.8509C95.299 45.5726 96.9412 46.2137 97.5961 47.562C98.3335 49.0979 98.1607 51.1816 96.8171 52.3459C95.5347 53.467 93.4246 53.4987 92.1253 52.3644C90.7977 51.1235 90.6701 48.9447 91.5475 47.407C92.0323 46.5827 92.9052 46.0384 93.8447 45.8509Z" fill="#854694"/>
<path d="M108.997 46.8921C108.449 47.0585 108.013 47.513 107.775 48.0264C107.278 49.1898 107.356 50.7583 108.31 51.6742C109.044 52.4219 110.372 52.3418 111.045 51.5659C111.966 50.5416 112.014 48.9089 111.327 47.7446C110.887 46.952 109.857 46.575 108.997 46.8921ZM109.012 45.8335C110.09 45.6768 111.278 45.9225 112.078 46.7027C112.826 47.3994 113.187 48.4729 113.127 49.4848C113.171 50.4914 112.796 51.5509 112.048 52.2502C111.126 53.1353 109.716 53.3677 108.514 53.0454C107.324 52.7152 106.432 51.661 106.215 50.4791C106.055 49.5914 106.072 48.6332 106.461 47.7904C106.901 46.7503 107.916 46.0325 109.012 45.8335Z" fill="#854694"/>
<path d="M127.12 48.8102C128.337 48.7785 129.574 48.7935 130.808 48.8094C130.9 47.8301 130.184 46.694 129.117 46.7257C128.007 46.6165 127.008 47.7376 127.12 48.8102ZM126.397 47.2373C126.959 46.3214 128.04 45.7464 129.117 45.7939C130.243 45.7147 131.371 46.4104 131.758 47.4725C132.105 48.1841 132.121 48.9793 132.056 49.7394C130.384 49.7403 128.712 49.7094 127.052 49.7596C126.96 50.6562 127.494 51.6196 128.355 51.9472C129.355 52.3347 130.462 52.1489 131.446 51.8222C131.543 52.1146 131.621 52.4263 131.669 52.7381C130.683 53.1881 129.574 53.2489 128.526 53.1459C127.29 52.9433 126.196 52.0397 125.899 50.8279C125.647 49.6354 125.696 48.2801 126.397 47.2373Z" fill="#854694"/>
<path d="M143.236 46.8761C142.267 47.0936 141.626 48.043 141.625 48.9924C141.627 49.7956 141.487 50.7097 142.052 51.3826C142.693 52.2844 144.116 52.4068 144.959 51.6899C145.551 51.1307 145.83 50.2773 145.8 49.4724C145.829 48.6278 145.536 47.7304 144.847 47.2011C144.395 46.8444 143.78 46.7519 143.236 46.8761ZM142.721 46.0518C143.69 45.6159 144.894 45.6942 145.757 46.301C146.519 46.862 146.975 47.7621 147.097 48.6789C147.255 49.9215 147.036 51.2989 146.135 52.236C144.989 53.4777 142.675 53.5376 141.646 52.1268C141.614 53.4143 141.629 54.7072 141.629 55.9991L140.349 56C140.27 52.6411 140.407 49.2989 140.25 45.9426C140.642 45.925 141.031 45.9241 141.424 45.9435C141.455 46.3019 141.473 46.6568 141.517 47.0153C141.896 46.6753 142.237 46.2561 142.721 46.0518Z" fill="#854694"/>
<path d="M150.962 46.7802C150.152 47.0594 149.567 47.8819 149.55 48.7239C150.792 48.7688 152.009 48.7688 153.247 48.7327C153.308 48.2421 153.168 47.7084 152.853 47.3227C152.416 46.7643 151.616 46.5917 150.962 46.7802ZM149.006 47.0136C150.022 45.6274 152.259 45.3183 153.554 46.4649C154.446 47.2892 154.671 48.5636 154.556 49.7296C152.884 49.7314 151.227 49.7005 149.552 49.7507C149.432 50.7054 150.055 51.705 150.978 51.9859C151.946 52.3091 152.995 52.1224 153.95 51.8124C154.029 52.1039 154.107 52.4175 154.152 52.716C153.182 53.1643 152.091 53.2303 151.024 53.137C150.055 52.9793 149.118 52.3857 148.666 51.4892C147.959 50.0889 148.102 48.287 149.006 47.0136Z" fill="#854694"/>
<path d="M158.028 46.3388C158.857 45.7171 160.063 45.5629 160.967 46.0905C161.845 46.544 162.299 47.5709 162.282 48.5282C162.281 50.0245 162.299 51.5304 162.252 53.0241C161.847 53.0232 161.422 53.0241 160.998 53.0074C160.906 51.5313 161.016 50.0351 160.954 48.5608C160.922 47.8659 160.56 47.1306 159.857 46.8981C158.731 46.5581 157.463 47.5216 157.513 48.6876C157.515 50.1284 157.494 51.5622 157.531 52.9897C157.077 53.025 156.641 53.025 156.186 53.0258C156.149 50.6621 156.167 48.2851 156.167 45.9381C156.529 45.9372 156.886 45.9364 157.245 45.9381C157.31 46.2842 157.325 46.6215 157.325 46.9632C157.622 46.8399 157.78 46.5273 158.028 46.3388Z" fill="#854694"/>
<path d="M165.048 46.1671C166.032 45.5771 167.346 45.6678 168.334 46.2094C168.24 46.522 168.146 46.8197 168.018 47.1147C167.331 46.8356 166.519 46.5529 165.801 46.928C165.251 47.2398 165.235 48.1258 165.783 48.4322C166.552 48.9483 167.566 49.0575 168.196 49.7991C168.913 50.6868 168.664 52.2104 167.633 52.7678C166.507 53.3931 165.083 53.2249 163.942 52.7256C164.004 52.398 163.99 51.9312 164.3 51.7621C165.064 52.0739 165.924 52.3539 166.737 52.0422C167.288 51.8202 167.489 51.1034 167.19 50.6225C166.894 50.1575 166.318 50.0043 165.85 49.7999C165.189 49.5586 164.5 49.1509 164.205 48.4851C163.874 47.6291 164.281 46.6339 165.048 46.1671Z" fill="#854694"/>
<path d="M171.6 49.8784C171.026 50.2341 170.868 51.0426 171.179 51.6336C171.663 52.4614 172.961 52.2835 173.552 51.6661C174.196 51.1016 174.053 50.1901 174.007 49.4274C173.194 49.3623 172.323 49.4451 171.6 49.8784ZM170.223 46.3662C171.145 45.8378 172.255 45.6669 173.302 45.8193C173.975 45.9461 174.635 46.3318 174.945 46.9554C175.416 47.7603 175.29 48.7246 175.305 49.615C175.322 50.7467 175.244 51.881 175.401 53.0189C175.013 53.0171 174.601 53.0347 174.23 52.9519C174.195 52.7212 174.165 52.4702 174.135 52.2236C173.712 52.4869 173.354 52.8744 172.867 53.0021C171.976 53.2989 170.838 53.2223 170.177 52.4623C169.366 51.527 169.614 49.9224 170.661 49.2592C171.631 48.6084 172.837 48.4957 173.975 48.4825C174.071 47.8616 173.787 47.1112 173.161 46.8629C172.287 46.5837 171.333 46.8347 170.534 47.2072C170.35 46.958 170.272 46.663 170.223 46.3662Z" fill="#854694"/>
<path d="M179.525 46.0959C180.259 45.6802 181.228 45.6291 181.97 46.0545C182.376 46.287 182.605 46.7044 182.904 47.0629C183.452 46.4076 184.169 45.7709 185.077 45.7709C186.015 45.6599 186.956 46.2377 187.332 47.0734C187.8 48.0483 187.628 49.1695 187.66 50.2245C187.63 51.1457 187.709 52.0757 187.63 52.9943C187.207 53.0119 186.788 53.0119 186.376 52.9943C186.364 51.6592 186.376 50.3196 186.376 48.988C186.361 48.4006 186.284 47.7463 185.878 47.276C185.44 46.7643 184.64 46.7203 184.076 47.0444C183.496 47.3702 183.139 48.0246 183.171 48.6772C183.171 50.1162 183.172 51.5499 183.172 52.996C182.736 53.0145 182.299 53.0145 181.861 52.9793C181.892 51.5966 181.86 50.2113 181.874 48.8304C181.892 48.2122 181.763 47.4812 181.216 47.091C180.873 46.8127 180.406 46.8145 180.001 46.8885C179.248 47.1395 178.715 47.8845 178.696 48.6648C178.655 50.11 178.717 51.5693 178.669 53.0154C178.249 53.0145 177.839 53.0163 177.42 53.0004C177.343 51.1924 177.401 49.3923 177.387 47.5922C177.418 47.0303 177.31 46.4702 177.431 45.9092C177.777 45.9277 178.135 45.9277 178.497 45.9277C178.511 46.2738 178.528 46.6287 178.559 46.9836C178.884 46.6895 179.137 46.3161 179.525 46.0959Z" fill="#854694"/>
<path d="M194.882 47.0577C194.367 47.4461 194.07 48.0652 193.99 48.6931C195.244 48.7662 196.506 48.7513 197.76 48.7046C197.741 48.1304 197.589 47.5209 197.149 47.1026C196.541 46.5751 195.505 46.5275 194.882 47.0577ZM194.256 46.2818C195.382 45.5473 197.055 45.5324 198.086 46.48C198.886 47.321 199.194 48.5963 198.979 49.713C197.305 49.7138 195.647 49.6821 193.992 49.7332C193.961 50.5831 194.367 51.4999 195.169 51.8592C196.179 52.3409 197.355 52.1392 198.372 51.794C198.511 52.0741 198.574 52.3849 198.65 52.6976C197.73 53.1282 196.713 53.2128 195.714 53.1282C194.51 53.0367 193.366 52.2484 192.973 51.0948C192.366 49.462 192.742 47.3237 194.256 46.2818Z" fill="#854694"/>
<path d="M201.843 46.9756C202.371 46.3212 203.118 45.7937 203.994 45.7638C204.89 45.6704 205.841 46.0861 206.295 46.8664C206.608 47.408 206.783 48.0315 206.783 48.6533C206.783 50.0994 206.766 51.5419 206.783 52.9722C206.341 53.0039 205.894 53.0065 205.453 52.9889C205.437 51.5428 205.469 50.0985 205.436 48.6691C205.405 47.9998 205.14 47.2231 204.467 46.9606C203.808 46.6938 203.011 46.8391 202.541 47.3631C202.135 47.7391 201.963 48.2816 201.964 48.8233C201.947 50.205 201.966 51.6071 201.949 52.9898C201.511 53.0065 201.058 53.0074 200.622 52.973C200.651 50.6269 200.649 48.2667 200.6 45.9196C200.994 45.917 201.381 45.9196 201.775 45.9179C201.776 46.2781 201.794 46.6207 201.843 46.9756Z" fill="#854694"/>
<path d="M215.941 46.8453C215.441 47.0328 215.035 47.4203 214.801 47.8889C214.235 49.0382 214.317 50.5617 215.176 51.556C215.897 52.3478 217.301 52.346 218.023 51.5543C218.96 50.4649 218.99 48.7572 218.239 47.5762C217.754 46.8461 216.755 46.5494 215.941 46.8453ZM215.958 45.8016C217.362 45.5383 218.973 46.1134 219.647 47.4203C220.493 49.0188 220.259 51.3033 218.756 52.4438C217.52 53.3544 215.647 53.4002 214.412 52.4543C212.959 51.305 212.737 49.0399 213.598 47.4697C214.063 46.5819 214.987 45.9892 215.958 45.8016Z" fill="#854694"/>
<path d="M189.784 45.924C190.206 45.9223 190.614 45.924 191.033 45.924C191.148 47.3543 191.052 48.8021 191.083 50.2244C191.065 51.1456 191.132 52.0747 191.054 52.9942C190.617 53.0118 190.193 53.0109 189.769 52.995C189.691 51.3614 189.767 49.7004 189.738 48.0491C189.755 47.3393 189.677 46.6242 189.784 45.924Z" fill="#854694"/>
</svg>
